# xmcd
#
# Track frame offsets: 
#        150
#        13980
#        33970
#        48860
#        61832
#        78170
#        96990
#        113397
#        126317
#        138072
#        152280
#        168047
#
# Disc length: 2497 seconds
#
# Revision: 2
# Processed by: cddbd v1.4PL0 Copyright (c) Steve Scherf et al.
# Submitted via: ExactAudioCopy v0.90b4
#
DISCID=8109bf0c
DTITLE=Don Walser - Down At The Sky-Vue Drive-In
DYEAR=1998
DGENRE=Country
TTITLE0=Please Help Me I'm Falling
TTITLE1=Hot Rod Mercury
TTITLE2=Fool Such As I
TTITLE3=In My Dear Old Southern Home
TTITLE4=Cherokee Maiden
TTITLE5=Ramon
TTITLE6=Marie
TTITLE7=Are You Teasing Me
TTITLE8=Hearts Made of Stone
TTITLE9=The Devil's Great Grandson
TTITLE10=An Eye For An Eye
TTITLE11=Rose Marie
EXTD=
EXTT0=
EXTT1=
EXTT2=
EXTT3=
EXTT4=
EXTT5=
EXTT6=
EXTT7=
EXTT8=
EXTT9=
EXTT10=
EXTT11=
PLAYORDER=
